<svg width="19" height="16" viewBox="0 0 19 16" fill="none" xmlns="http://www.w3.org/2000/svg">
<path d="M18.9429 5.4231C18.6415 5.75457 18.3 6.04586 17.9384 6.29698C16.261 7.43202 14.5735 8.57711 12.9362 9.76238C12.0924 10.3851 11.0478 11.1485 9.95292 11.1485H9.94288H9.93283C8.83797 11.1485 7.79333 10.3851 6.94958 9.76238C5.3123 8.56707 3.6248 7.43202 1.95739 6.29698C1.58574 6.04586 1.24422 5.75457 0.942879 5.4231V13.3985C0.942879 14.2825 1.66609 15.0057 2.55002 15.0057H17.3357C18.2197 15.0057 18.9429 14.2825 18.9429 13.3985V5.4231ZM18.9429 2.46997C18.9429 1.58604 18.2096 0.862828 17.3357 0.862828H2.55002C1.47524 0.862828 0.942879 1.70658 0.942879 2.69095C0.942879 3.60502 1.95739 4.74006 2.67056 5.2222C4.22748 6.30702 5.80449 7.39185 7.36141 8.48671C8.01431 8.93872 9.11922 9.86283 9.93283 9.86283H9.94288H9.95292C10.7665 9.86283 11.8715 8.93872 12.5244 8.48671C14.0813 7.39185 15.6583 6.30702 17.2252 5.2222C18.1092 4.60948 18.9429 3.59497 18.9429 2.46997Z" fill="white"/>
</svg>
