<svg width="16" height="15" viewBox="0 0 16 15" fill="none" xmlns="http://www.w3.org/2000/svg">
<path d="M15.0105 11.6039C15.0105 11.5336 15.0105 11.4633 14.9804 11.393C14.9101 11.1821 14.4179 10.9611 14.217 10.8606C13.6444 10.5392 13.0619 10.2278 12.4994 9.89634C12.2382 9.73563 11.9168 9.43429 11.6054 9.43429C10.9927 9.43429 10.0987 11.2524 9.55628 11.2524C9.28507 11.2524 8.93351 11.0013 8.69244 10.8606C6.86431 9.84612 5.59869 8.5805 4.58418 6.75237C4.44355 6.5113 4.19244 6.15974 4.19244 5.88853C4.19244 5.34612 6.01052 4.45215 6.01052 3.83942C6.01052 3.52804 5.70918 3.20661 5.54846 2.94545C5.21699 2.38295 4.90561 1.80036 4.58418 1.22782C4.48373 1.02692 4.26275 0.534737 4.05181 0.464425C3.9815 0.434291 3.91119 0.434291 3.84087 0.434291C3.47927 0.434291 2.77614 0.595005 2.44467 0.745675C1.95248 0.956612 1.63105 1.51911 1.37994 1.97112C1.05851 2.56376 0.867661 3.16643 0.867661 3.83942C0.867661 4.77358 1.24936 5.61733 1.56074 6.47112C1.78172 7.08384 2.05293 7.67648 2.39445 8.22893C3.44913 9.93652 5.50829 11.9957 7.21588 13.0504C7.76833 13.3919 8.36096 13.6631 8.97369 13.8841C9.82748 14.1955 10.6712 14.5771 11.6054 14.5771C12.2784 14.5771 12.8811 14.3863 13.4737 14.0649C13.9257 13.8138 14.4882 13.4923 14.6991 13.0001C14.8498 12.6687 15.0105 11.9655 15.0105 11.6039Z" fill="white"/>
</svg>
