<svg width="34" height="34" viewBox="0 0 34 34" fill="none" xmlns="http://www.w3.org/2000/svg">
<path d="M16.6353 0.81014L12.776 4.66942C12.4636 4.98188 12.4636 5.48848 12.776 5.80094L14.6825 7.70744C15.6777 8.69474 15.6022 10.3211 14.5569 11.2423C14.7694 11.4178 15.006 11.5597 15.263 11.6657C15.7394 11.8625 16.2958 11.8965 16.8296 11.7615C18.6323 11.3058 20.0704 11.2014 21.226 11.4425C22.4079 11.6891 23.0932 12.2661 23.5058 12.6787L24.1964 13.3693C24.5236 13.6966 25.0542 13.6966 25.3815 13.3694L27.0157 11.7351C27.1092 11.6417 27.1092 11.4901 27.0157 11.3967L23.5708 7.95171C23.1495 7.53043 22.8145 7.04013 22.5751 6.49446L22.1326 5.48547C21.9728 5.12113 21.7465 4.78982 21.4652 4.50851L17.7668 0.810141C17.4544 0.497676 16.9478 0.497676 16.6353 0.81014V0.81014Z" fill="black"/>
<path d="M19.8452 22.7576C19.6327 22.5822 19.3961 22.4402 19.139 22.3341C18.6626 22.1375 18.1063 22.1035 17.5725 22.2384C14.9482 22.9259 12.4153 22.9446 10.8963 21.3212L10.2057 20.6306C9.87844 20.3033 9.34783 20.3033 9.02057 20.6306L7.38638 22.2647C7.29291 22.3582 7.29292 22.5097 7.38638 22.6032L10.8313 26.0481C11.2509 26.4677 11.5886 26.962 11.8269 27.5054L12.2695 28.5145C12.4299 28.8802 12.6545 29.2089 12.9369 29.4914L16.6353 33.1897C16.9478 33.5022 17.4543 33.5022 17.7668 33.1897L21.6261 29.3305C21.9386 29.018 21.9386 28.5114 21.6261 28.1989L19.7196 26.2924C18.7243 25.3052 18.7999 23.6787 19.8452 22.7576Z" fill="black"/>
<path d="M27.7066 22.374L28.7158 21.9313C29.08 21.7716 29.4113 21.5452 29.6925 21.264L33.3909 17.5656C33.7033 17.2532 33.7033 16.7466 33.3909 16.4341L29.5316 12.5749C29.2192 12.2624 28.7126 12.2624 28.4001 12.5749L26.4936 14.4814C25.5063 15.4767 23.8798 15.401 22.9586 14.3558C22.7833 14.5682 22.6413 14.8048 22.5352 15.0619C22.3386 15.5383 22.3046 16.0946 22.4395 16.6285C22.8953 18.4312 22.9996 19.8692 22.7585 21.0249C22.5119 22.2067 21.9348 22.892 21.5222 23.3046L20.8316 23.9952C20.5044 24.3225 20.5044 24.8531 20.8316 25.1803L22.4659 26.8146C22.5593 26.908 22.7108 26.908 22.8043 26.8146L26.2493 23.3696C26.6707 22.9482 27.1609 22.6132 27.7066 22.374Z" fill="black"/>
<path d="M6.69555 11.6259L5.68648 12.0685C5.32074 12.2289 4.99204 12.4535 4.70962 12.7359L1.01126 16.4342C0.698793 16.7467 0.698793 17.2533 1.01126 17.5658L4.87053 21.425C5.183 21.7375 5.68959 21.7375 6.00206 21.425L7.90856 19.5185C8.89579 18.5233 10.5223 18.5988 11.4435 19.6442C11.6189 19.4317 11.7608 19.1951 11.8669 18.938C12.0636 18.4617 12.0976 17.9053 11.9626 17.3715C11.2751 14.7471 11.2565 12.2143 12.8799 10.6953L13.5705 10.0047C13.8978 9.67743 13.8978 9.14688 13.5705 8.81962L11.9362 7.18533C11.8428 7.09187 11.6913 7.09187 11.5978 7.18533L8.15289 10.6302C7.73325 11.0499 7.23902 11.3875 6.69555 11.6259Z" fill="black"/>
</svg>
